<svg version="1.2" baseProfile="tiny-ps" xmlns="http://www.w3.org/2000/svg" viewBox="0 0 356 468" width="356" height="468"><title>AdobeStock_293315131-ai</title><defs><clipPath clipPathUnits="userSpaceOnUse" id="cp1"><path d="m9.48 228.76l165.67-219.16c2.02-2.68 5.83-3.21 8.51-1.19c0.5 0.37 0.92 0.81 1.26 1.29l165.67 219.16c1.7 2.25 1.6 5.31-0.08 7.42l-165.67 219.16c-2.02 2.68-5.83 3.21-8.51 1.19c-0.5-0.37-0.92-0.81-1.27-1.29l-165.67-219.16c-1.7-2.25-1.59-5.31 0.08-7.43zm170.52-205.42l-158.13 209.19l158.13 209.19l158.13-209.19l-158.13-209.19z" /></clipPath><linearGradient id="grd1" gradientUnits="userSpaceOnUse"  x1="354.3" y1="-43.6" x2="354.3" y2="594.3"><stop offset="0" stop-color="#e733bb"  /><stop offset=".5" stop-color="#29c5ff"  /><stop offset="1" stop-color="#5efca1"  /></linearGradient><clipPath clipPathUnits="userSpaceOnUse" id="cp2"><path d="m206.54 173.34c-3.16 1.09-6.61-0.59-7.7-3.76c-1.09-3.17 0.59-6.61 3.76-7.7l29.66-10.28l-23.62-4.48c-1.68-0.32-3.07-1.29-3.95-2.62l0 0c-2.48-3.74-5.21-6.51-8.14-8.45c-2.81-1.86-5.87-2.98-9.11-3.47c-9.58-1.47-22.41 2.07-35.75 8.05c-10.76 4.82-21.74 11.2-31.68 17.88c12.64-0.98 27.83-1.53 37.68 0.21c3.31 0.58 5.52 3.73 4.95 7.04c-0.58 3.31-3.73 5.52-7.04 4.95c-17.7-3.14-56.2 2.14-56.31 2.16c-2.02 0.27-4.13-0.49-5.52-2.19c-2.11-2.6-1.72-6.42 0.88-8.54c13.98-11.35 33.31-24.17 52.09-32.59c15.31-6.86 30.43-10.86 42.51-9c4.94 0.76 9.63 2.48 14 5.38c3.64 2.41 7.01 5.61 10.05 9.72l43.56 8.26l0 0.01c2.07 0.39 3.88 1.85 4.62 3.98c1.09 3.17-0.59 6.61-3.76 7.7l-51.19 17.73z" /></clipPath><linearGradient id="grd2" gradientUnits="userSpaceOnUse"  x1="264.6" y1="-43.6" x2="264.6" y2="594.3"><stop offset="0" stop-color="#e733bb"  /><stop offset=".5" stop-color="#29c5ff"  /><stop offset="1" stop-color="#5efca1"  /></linearGradient><clipPath clipPathUnits="userSpaceOnUse" id="cp3"><path d="m184.73 140.39c6.29-1.68 12.75 2.05 14.43 8.33c1.68 6.29-2.05 12.75-8.33 14.43c-6.29 1.68-12.75-2.05-14.43-8.33c-1.68-6.29 2.05-12.75 8.33-14.43z" /></clipPath><linearGradient id="grd3" gradientUnits="userSpaceOnUse"  x1="202.8" y1="-43.6" x2="202.9" y2="594.3"><stop offset="0" stop-color="#e733bb"  /><stop offset=".5" stop-color="#29c5ff"  /><stop offset="1" stop-color="#5efca1"  /></linearGradient><clipPath clipPathUnits="userSpaceOnUse" id="cp4"><path d="m187.76 145.54c3.18-1.09 6.64 0.6 7.73 3.78c1.09 3.18-0.6 6.64-3.78 7.73c-3.1 1.07-6.77 2.58-9.31 4.66c-1.76 1.44-2.97 3.22-2.7 5.4c1.03 8.03 14.38 12.88 29.13 18.24c5.91 2.15 12.02 4.36 17.95 7.02c35.06 15.72 37.8 39.29 26.79 63.84c-11.08 24.71-36.89 49.82-55.35 67.77c-3.66 3.56-7.03 6.84-9.87 9.71c-8.09 8.18-16.09 16.92-23.76 27.24c-7.65 10.3-15.02 22.22-21.9 36.82c-1.43 3.03-5.05 4.33-8.09 2.9c-1.86-0.88-3.06-2.57-3.39-4.45c-3.71-18.08-5.78-69.93 5.82-118.13c7.44-30.93 20.52-60.56 42.38-79.47c1.75-1.51 4.11-1.85 6.13-1.08l0-0.01c11.01 4.2 19.35 8.89 25.34 13.97c6.9 5.86 10.79 12.29 12.13 19.14c5.67 29.13-24.54 54.55-48.55 74.76c-2.54 2.14-4.99 4.2-8.97 7.67c-2.54 2.21-6.38 1.94-8.58-0.59c-1.32-1.51-1.75-3.49-1.35-5.31c0.77-5.73 7.8-53.05 32.64-77.89c2.38-2.38 6.23-2.38 8.61 0c2.38 2.38 2.38 6.23 0 8.61c-14.7 14.7-22.47 38.87-26.22 54.94c20.8-17.59 44.56-39.04 40.5-59.9c-0.8-4.13-3.38-8.2-8.04-12.15c-4.35-3.69-10.4-7.21-18.39-10.52c-18.08 17.13-29.23 43.25-35.82 70.64c-8.3 34.49-9.36 70.71-7.91 94.03c4.5-7.8 9.15-14.79 13.92-21.21c8.09-10.89 16.46-20.04 24.9-28.57c2.95-2.98 6.33-6.27 10.01-9.85c17.77-17.28 42.62-41.45 52.73-64.01c8.19-18.26 5.97-35.87-20.66-47.81c-5.46-2.45-11.4-4.61-17.14-6.69c-18.4-6.68-35.05-12.73-37.02-28.13c-0.92-7.18 2.3-12.44 7.07-16.33c3.98-3.25 8.94-5.35 13.02-6.76z" /></clipPath><linearGradient id="grd4" gradientUnits="userSpaceOnUse"  x1="266.6" y1="-43.6" x2="266.6" y2="594.3"><stop offset="0" stop-color="#e733bb"  /><stop offset=".5" stop-color="#29c5ff"  /><stop offset="1" stop-color="#5efca1"  /></linearGradient></defs><style>tspan { white-space:pre }.s0 { fill: none } .s1 { fill: url(#grd1) } .s2 { fill: url(#grd2) } .s3 { fill: url(#grd3) } .s4 { fill: url(#grd4) } </style><g ><g ><g clip-path="url(#cp1)"><path fill-rule="evenodd" class="s0" d="m9.48 228.76l165.67-219.16c2.02-2.68 5.83-3.21 8.51-1.19c0.5 0.37 0.92 0.81 1.26 1.29l165.67 219.16c1.7 2.25 1.6 5.31-0.08 7.42l-165.67 219.16c-2.02 2.68-5.83 3.21-8.51 1.19c-0.5-0.37-0.92-0.81-1.27-1.29l-165.67-219.16c-1.7-2.25-1.59-5.31 0.08-7.43zm170.52-205.42l-158.13 209.19l158.13 209.19l158.13-209.19l-158.13-209.19z" /><path class="s1" d="m7.7 6.39h344.6v452.27h-344.6v-452.27z" /></g><g clip-path="url(#cp2)"><path class="s2" d="m91.66 118.7h170.91v55.73h-170.91v-55.73z" /></g><g clip-path="url(#cp3)"><path class="s3" d="m174.72 138.7h26.13v26.13h-26.13v-26.13z" /></g><g clip-path="url(#cp4)"><path class="s4" d="m125.43 144.44h139.14v257.63h-139.14v-257.63z" /></g></g></g></svg>